<svg width="50" height="26" viewBox="0 0 50 26" fill="none" xmlns="http://www.w3.org/2000/svg">
<path d="M49.052 1.41148V5.08131C49.052 5.72655 48.5278 6.25081 47.8825 6.25081H43.917V17.6098C44.1724 28.5118 26.0249 28.9016 25.4334 17.9324L25.42 13.0393C27.517 13.1603 29.8157 12.0311 31.4288 10.1761V16.0774C31.4288 20.836 37.9081 20.836 37.9081 16.0774L37.8947 6.25081H34.3458C33.7006 6.25081 33.1763 5.72655 33.1763 5.08131V1.41148C33.1763 0.766235 33.7006 0.241974 34.3458 0.241974H47.8825C48.5278 0.241974 49.052 0.766235 49.052 1.41148Z" fill="#F9B000"/>
<path d="M31.4288 9.58457V10.2433C29.8157 12.0983 27.517 13.2006 25.42 13.0796V11.117C25.42 6.37179 18.9541 6.37179 18.9406 11.1305L18.9541 17.6367C19.2229 28.6462 0.725906 28.9285 0.457054 17.6367V8.21343C1.33082 8.72425 2.35246 9.01999 3.45475 9.01999C4.55705 9.01999 5.57868 8.72425 6.4659 8.21343V16.0908C6.45245 20.8495 12.9318 20.8495 12.9452 16.0908L12.9318 9.58457C12.6764 -1.43836 31.16 -1.72065 31.4288 9.58457Z" fill="#4D3677"/>
<path d="M3.36065 6.7213C5.21668 6.7213 6.7213 5.21668 6.7213 3.36065C6.7213 1.50461 5.21668 0 3.36065 0C1.50461 0 0 1.50461 0 3.36065C0 5.21668 1.50461 6.7213 3.36065 6.7213Z" fill="#4D3677"/>
<path d="M22.1937 13.4023C23.144 13.4023 23.9144 12.6319 23.9144 11.6816C23.9144 10.7313 23.144 9.96097 22.1937 9.96097C21.2434 9.96097 20.4731 10.7313 20.4731 11.6816C20.4731 12.6319 21.2434 13.4023 22.1937 13.4023Z" fill="#F9B000"/>
</svg>
